<?xml version="1.0" encoding="UTF-8" standalone="no"?>
<!DOCTYPE svg PUBLIC "-//W3C//DTD SVG 1.1//EN" "http://www.w3.org/Graphics/SVG/1.1/DTD/svg11.dtd">
<svg width="100%" height="100%" viewBox="0 0 189 215" version="1.1" xmlns="http://www.w3.org/2000/svg" xmlns:xlink="http://www.w3.org/1999/xlink" xml:space="preserve" xmlns:serif="http://www.serif.com/" style="fill-rule:evenodd;clip-rule:evenodd;stroke-miterlimit:10;">
    <g transform="matrix(1,0,0,1,-1012.12,-439.03)">
        <path d="M1103.7,624.4C1137.8,624.4 1176.43,613.47 1192.75,602.91C1194.03,602.08 1195.28,600.95 1195.28,598.28C1195.28,594 1193.27,583.86 1190.63,577.33C1187.22,568.88 1183.35,565.24 1176.3,562.31C1161.28,556.06 1138.87,550.95 1133.12,548.25C1126.2,544.99 1125.31,540.37 1125.31,534.68C1125.31,533.9 1125.73,533.27 1126.12,532.76C1131.68,525.39 1135.41,516.53 1137.39,507.15C1137.82,507.15 1140.92,503.76 1142.68,499.01C1144.65,493.68 1146.55,485.54 1142.8,485.54C1143.09,484.23 1143.44,480.07 1143.45,477.65C1143.52,460.14 1132.49,439.03 1103.7,439.03C1074.91,439.03 1063.88,460.14 1063.95,477.65C1063.96,480.07 1064.3,484.23 1064.6,485.54C1060.85,485.54 1062.75,493.68 1064.72,499.01C1066.48,503.76 1069.58,507.15 1070.01,507.15C1071.99,516.53 1075.72,525.39 1081.28,532.76C1081.67,533.27 1082.09,533.9 1082.09,534.68C1082.09,540.37 1082.03,544.99 1075.1,548.25C1069.35,550.96 1046.12,556.07 1031.1,562.31C1024.05,565.24 1020.18,568.88 1016.77,577.33C1014.14,583.86 1012.12,594 1012.12,598.28C1012.12,600.95 1013.37,602.08 1014.65,602.91C1030.97,613.47 1069.6,624.4 1103.7,624.4Z" style="fill:rgb(20,40,200);fill-rule:nonzero;"/>
    </g>
    <g transform="matrix(1,0,0,1,-1012.12,-439.03)">
        <path d="M1153.13,638.97L1097.88,638.97C1079.55,638.97 1064.56,623.98 1064.56,605.65C1064.56,587.32 1079.55,572.33 1097.88,572.33L1153.13,572.33C1171.46,572.33 1186.45,587.32 1186.45,605.65C1186.46,623.97 1171.46,638.97 1153.13,638.97Z" style="fill:rgb(255,35,65);fill-rule:nonzero;stroke:white;stroke-width:2.9px;"/>
    </g>
    <g transform="matrix(1,0,0,1,71.2827,184.436)">
        <text x="0px" y="0px" style="font-family:'Arial-BoldMT', 'Arial', sans-serif;font-weight:700;font-size:50px;fill:white;">181</text>
    </g>
</svg>
