<?xml version="1.0" encoding="UTF-8" standalone="no"?>
<!DOCTYPE svg PUBLIC "-//W3C//DTD SVG 1.1//EN" "http://www.w3.org/Graphics/SVG/1.1/DTD/svg11.dtd">
<svg width="100%" height="100%" viewBox="0 0 184 215" version="1.1" xmlns="http://www.w3.org/2000/svg" xmlns:xlink="http://www.w3.org/1999/xlink" xml:space="preserve" xmlns:serif="http://www.serif.com/" style="fill-rule:evenodd;clip-rule:evenodd;stroke-miterlimit:10;">
    <g transform="matrix(1,0,0,1,-457.68,-439.03)">
        <clipPath id="_clip1">
            <rect x="457.68" y="439.03" width="239.403" height="255.917"/>
        </clipPath>
        <g clip-path="url(#_clip1)">
            <path d="M549.26,624.4C583.36,624.4 621.99,613.47 638.31,602.91C639.59,602.08 640.84,600.95 640.84,598.28C640.84,594 638.83,583.86 636.19,577.33C632.78,568.88 628.91,565.24 621.86,562.31C606.84,556.06 584.43,550.95 578.68,548.25C571.76,544.99 570.87,540.37 570.87,534.68C570.87,533.9 571.29,533.27 571.68,532.76C577.24,525.39 580.97,516.53 582.95,507.15C583.38,507.15 586.48,503.76 588.24,499.01C590.21,493.68 592.11,485.54 588.36,485.54C588.65,484.23 589,480.07 589.01,477.65C589.08,460.14 578.05,439.03 549.26,439.03C520.47,439.03 509.44,460.14 509.51,477.65C509.52,480.07 509.86,484.23 510.16,485.54C506.41,485.54 508.31,493.68 510.28,499.01C512.04,503.76 515.14,507.15 515.57,507.15C517.55,516.53 521.28,525.39 526.84,532.76C527.23,533.27 527.65,533.9 527.65,534.68C527.65,540.37 527.59,544.99 520.66,548.25C514.91,550.96 491.68,556.07 476.66,562.31C469.61,565.24 465.74,568.88 462.33,577.33C459.7,583.86 457.68,594 457.68,598.28C457.68,600.95 458.93,602.08 460.21,602.91C476.53,613.47 515.16,624.4 549.26,624.4Z" style="fill:rgb(20,40,200);fill-rule:nonzero;"/>
        </g>
        <circle cx="578.96" cy="605.65" r="33.32" style="fill:rgb(255,35,65);stroke:white;stroke-width:2.9px;"/>
        <g transform="matrix(1,0,0,1,564.819,623.466)">
            <text x="0px" y="0px" style="font-family:'Arial-BoldMT', 'Arial', sans-serif;font-weight:700;font-size:50px;fill:white;">5</text>
        </g>
    </g>
</svg>
