<?xml version="1.0" encoding="UTF-8" standalone="no"?>
<!DOCTYPE svg PUBLIC "-//W3C//DTD SVG 1.1//EN" "http://www.w3.org/Graphics/SVG/1.1/DTD/svg11.dtd">
<svg width="100%" height="100%" viewBox="0 0 184 215" version="1.1" xmlns="http://www.w3.org/2000/svg" xmlns:xlink="http://www.w3.org/1999/xlink" xml:space="preserve" xmlns:serif="http://www.serif.com/" style="fill-rule:evenodd;clip-rule:evenodd;stroke-miterlimit:10;">
    <g transform="matrix(1,0,0,1,-737.22,-439.03)">
        <path d="M828.8,624.4C862.9,624.4 901.53,613.47 917.85,602.91C919.13,602.08 920.38,600.95 920.38,598.28C920.38,594 918.37,583.86 915.73,577.33C912.32,568.88 908.45,565.24 901.4,562.31C886.38,556.06 863.97,550.95 858.22,548.25C851.3,544.99 850.41,540.37 850.41,534.68C850.41,533.9 850.83,533.27 851.22,532.76C856.78,525.39 860.51,516.53 862.49,507.15C862.92,507.15 866.02,503.76 867.78,499.01C869.75,493.68 871.65,485.54 867.9,485.54C868.19,484.23 868.54,480.07 868.55,477.65C868.62,460.14 857.59,439.03 828.8,439.03C800.01,439.03 788.98,460.14 789.05,477.65C789.06,480.07 789.4,484.23 789.7,485.54C785.95,485.54 787.85,493.68 789.82,499.01C791.58,503.76 794.68,507.15 795.11,507.15C797.09,516.53 800.82,525.39 806.38,532.76C806.77,533.27 807.19,533.9 807.19,534.68C807.19,540.37 807.13,544.99 800.2,548.25C794.45,550.96 771.22,556.07 756.2,562.31C749.15,565.24 745.28,568.88 741.87,577.33C739.24,583.86 737.22,594 737.22,598.28C737.22,600.95 738.47,602.08 739.75,602.91C756.07,613.47 794.7,624.4 828.8,624.4Z" style="fill:rgb(20,40,200);fill-rule:nonzero;"/>
    </g>
    <g transform="matrix(1,0,0,1,-737.22,-439.03)">
        <path d="M871.98,638.97L845.03,638.97C826.7,638.97 811.71,623.98 811.71,605.65C811.71,587.32 826.7,572.33 845.03,572.33L871.98,572.33C890.31,572.33 905.3,587.32 905.3,605.65C905.3,623.97 890.3,638.97 871.98,638.97Z" style="fill:rgb(255,35,65);fill-rule:nonzero;stroke:white;stroke-width:2.9px;"/>
    </g>
    <g transform="matrix(1,0,0,1,93.3519,184.436)">
        <text x="0px" y="0px" style="font-family:'Arial-BoldMT', 'Arial', sans-serif;font-weight:700;font-size:50px;fill:white;">83</text>
    </g>
</svg>
